<?xml version="1.0" encoding="UTF-8"?>
<svg version="1.1" xmlns="http://www.w3.org/2000/svg" width="250" height="250">
<path d="M0 0 C0.70270745 -0.00538554 1.40541491 -0.01077108 2.12941653 -0.01631981 C4.46614427 -0.0305402 6.80230076 -0.02351068 9.13905334 -0.01637268 C10.82167005 -0.02207936 12.50428289 -0.02904477 14.18688965 -0.03717041 C18.74477419 -0.05508389 23.30246602 -0.05393687 27.86037517 -0.04822803 C31.66999459 -0.04513361 35.47957714 -0.05123143 39.28919131 -0.05726677 C48.27856466 -0.07130439 57.26784296 -0.06975701 66.25721741 -0.05836487 C75.52143271 -0.04688364 84.78535853 -0.06096112 94.04953569 -0.08776134 C102.01323861 -0.1099342 109.97685075 -0.11655217 117.94058233 -0.11068493 C122.69268672 -0.10731804 127.44460554 -0.10971266 132.19668388 -0.12693596 C136.66607429 -0.14242837 141.13503654 -0.1384242 145.60441017 -0.11963081 C147.24102574 -0.11595131 148.8776732 -0.11903477 150.51425934 -0.1295166 C160.49302777 -0.18852958 167.92933667 -0.1540082 175.49476624 7.07518005 C180.08054132 14.01935375 181.12887696 20.88969479 181.07044983 29.0790863 C181.07833527 30.46388687 181.07833527 30.46388687 181.08638 31.87666321 C181.09948775 34.9013455 181.0908747 37.92549324 181.08070374 40.95018005 C181.08272712 43.06810099 181.08564076 45.18602125 181.08940125 47.30393982 C181.09381211 51.73198614 181.08743338 56.1598503 181.07337952 60.58787537 C181.05628854 66.24682111 181.06613634 71.90533991 181.08409691 77.56427002 C181.09496815 81.93446535 181.09147307 86.30456046 181.08371353 90.67475891 C181.08172076 92.7606359 181.08413815 94.84652216 181.09115219 96.93238831 C181.09882175 99.85392662 181.08708559 102.77478571 181.07044983 105.6962738 C181.07652252 106.54744781 181.08259521 107.39862183 181.08885193 108.27558899 C181.01504186 115.31786073 179.75424129 122.8176408 174.93226624 128.26268005 C174.48367249 128.79635193 174.03507874 129.3300238 173.57289124 129.87986755 C168.58336666 133.85911649 163.61293171 134.76322873 157.36453247 134.77536011 C156.66182502 134.78074565 155.95911756 134.78613118 155.23511595 134.79167992 C152.8983882 134.80590031 150.56223171 134.79887078 148.22547913 134.79173279 C146.54286242 134.79743947 144.86024958 134.80440488 143.17764282 134.81253052 C138.61975828 134.830444 134.06206645 134.82929698 129.5041573 134.82358813 C125.69453788 134.82049372 121.88495534 134.82659154 118.07534117 134.83262688 C109.08596781 134.8466645 100.09668951 134.84511711 91.10731506 134.83372498 C81.84309976 134.82224375 72.57917394 134.83632123 63.31499678 134.86312145 C55.35129386 134.88529431 47.38768172 134.89191227 39.42395014 134.88604504 C34.67184575 134.88267815 29.91992693 134.88507277 25.16784859 134.90229607 C20.69845818 134.91778847 16.22949593 134.9137843 11.7601223 134.89499092 C10.12350673 134.89131142 8.48685927 134.89439487 6.85027313 134.90487671 C-3.1284953 134.96388969 -10.5648042 134.92936831 -18.13023376 127.70018005 C-22.71600885 120.75600635 -23.76434449 113.88566532 -23.70591736 105.6962738 C-23.71117432 104.77307343 -23.71643127 103.84987305 -23.72184753 102.8986969 C-23.73495528 99.87401461 -23.72634223 96.84986687 -23.71617126 93.82518005 C-23.71819465 91.70725911 -23.72110829 89.58933886 -23.72486877 87.47142029 C-23.72927964 83.04337397 -23.72290091 78.61550981 -23.70884705 74.18748474 C-23.69175607 68.52853899 -23.70160387 62.8700202 -23.71956444 57.21109009 C-23.73043568 52.84089475 -23.7269406 48.47079965 -23.71918106 44.1006012 C-23.71718829 42.01472421 -23.71960568 39.92883795 -23.72661972 37.8429718 C-23.73428928 34.92143349 -23.72255312 32.0005744 -23.70591736 29.0790863 C-23.7150264 27.80232529 -23.7150264 27.80232529 -23.72431946 26.49977112 C-23.65050939 19.45749938 -22.38970882 11.9577193 -17.56773376 6.51268005 C-16.89484314 5.71217224 -16.89484314 5.71217224 -16.20835876 4.89549255 C-11.21883419 0.91624361 -6.24839924 0.01213138 0 0 Z " fill="#D6C5C8" transform="translate(46.31773376464844,57.61231994628906)"/>
<path d="M0 0 C8.58 0 17.16 0 26 0 C26 17.16 26 34.32 26 52 C54.38 52 82.76 52 112 52 C112 60.58 112 69.16 112 78 C83.62 78 55.24 78 26 78 C26 95.16 26 112.32 26 130 C17.42 130 8.84 130 0 130 C0 112.84 0 95.68 0 78 C-28.71 78 -57.42 78 -87 78 C-87 69.42 -87 60.84 -87 52 C-58.29 52 -29.58 52 0 52 C0 34.84 0 17.68 0 0 Z " fill="#C7102E" transform="translate(112,60)"/>
<path d="M0 0 C2.64 0 5.28 0 8 0 C9 1 9 1 9.12025452 3.09437561 C9.11803391 4.01592941 9.11581329 4.93748322 9.11352539 5.88696289 C9.11340454 6.94258423 9.11328369 7.99820557 9.11315918 9.08581543 C9.10804321 10.2034729 9.10292725 11.32113037 9.09765625 12.47265625 C9.09664917 13.49387573 9.09564209 14.51509521 9.09460449 15.56726074 C9.08935415 19.39901851 9.07539303 23.23076033 9.0625 27.0625 C9.041875 35.621875 9.02125 44.18125 9 53 C-19.71 53 -48.42 53 -78 53 C-78 61.58 -78 70.16 -78 79 C-49.29 79 -20.58 79 9 79 C9 96.82 9 114.64 9 133 C-8.89744203 133.16043524 -8.89744203 133.16043524 -16.55859375 133.1953125 C-21.77506903 133.21917341 -26.991262 133.24732346 -32.20751953 133.30175781 C-36.41560957 133.34539387 -40.62339663 133.3691744 -44.83169556 133.37950897 C-46.43279791 133.38686863 -48.0338847 133.4012402 -49.63485718 133.42292023 C-59.60693415 133.55252234 -67.16711756 133.61808766 -74.8125 126.3125 C-79.39827509 119.3683263 -80.44661073 112.49798527 -80.38818359 104.30859375 C-80.39344055 103.38539337 -80.39869751 102.46219299 -80.40411377 101.51101685 C-80.41722151 98.48633456 -80.40860847 95.46218681 -80.3984375 92.4375 C-80.40046088 90.31957906 -80.40337452 88.2016588 -80.40713501 86.08374023 C-80.41154588 81.65569391 -80.40516715 77.22782975 -80.39111328 72.79980469 C-80.3740223 67.14085894 -80.38387011 61.48234014 -80.40183067 55.82341003 C-80.41270192 51.4532147 -80.40920684 47.08311959 -80.4014473 42.71292114 C-80.39945453 40.62704416 -80.40187192 38.54115789 -80.40888596 36.45529175 C-80.41655551 33.53375343 -80.40481935 30.61289434 -80.38818359 27.69140625 C-80.39729263 26.41464523 -80.39729263 26.41464523 -80.40658569 25.11209106 C-80.34676414 19.40447406 -79.51382285 14.18102313 -77 9 C-74.1875 6.3125 -74.1875 6.3125 -71 5 C-66.62161998 6.13664372 -62.70910929 8.02132166 -58.67504883 10.04101562 C-58.07427017 10.34045578 -57.47349152 10.63989594 -56.85450745 10.94841003 C-54.88671097 11.93046918 -52.92183651 12.91822176 -50.95703125 13.90625 C-49.58288441 14.5939201 -48.20858903 15.28129343 -46.83415222 15.96838379 C-43.96248718 17.40499613 -41.09218066 18.84427528 -38.22290039 20.28564453 C-34.54629985 22.13245852 -30.86707288 23.97396474 -27.18690968 25.8136673 C-24.35255361 27.23098128 -21.51924473 28.65037765 -18.68628502 30.07048035 C-17.32974864 30.75033829 -15.9729704 31.42971386 -14.61594582 32.1085968 C-12.72187099 33.0567187 -10.82913669 34.00746354 -8.93676758 34.95898438 C-7.8601033 35.49922241 -6.78343903 36.03946045 -5.67414856 36.59606934 C-3 38 -3 38 0 40 C0 26.8 0 13.6 0 0 Z " fill="#C9C1C5" transform="translate(103,59)"/>
<path d="M0 0 C2.64 0 5.28 0 8 0 C9 1 9 1 9.12025452 3.09437561 C9.11803391 4.01592941 9.11581329 4.93748322 9.11352539 5.88696289 C9.11340454 6.94258423 9.11328369 7.99820557 9.11315918 9.08581543 C9.10804321 10.2034729 9.10292725 11.32113037 9.09765625 12.47265625 C9.09664917 13.49387573 9.09564209 14.51509521 9.09460449 15.56726074 C9.08935415 19.39901851 9.07539303 23.23076033 9.0625 27.0625 C9.041875 35.621875 9.02125 44.18125 9 53 C-19.71 53 -48.42 53 -78 53 C-78 50.03 -78 47.06 -78 44 C-70.41 43.67 -62.82 43.34 -55 43 C-57.36478516 41.89591797 -57.36478516 41.89591797 -59.77734375 40.76953125 C-61.83118832 39.78481125 -63.88454903 38.79908162 -65.9375 37.8125 C-66.97841797 37.32974609 -68.01933594 36.84699219 -69.09179688 36.34960938 C-70.08115234 35.86943359 -71.07050781 35.38925781 -72.08984375 34.89453125 C-73.46450806 34.24254761 -73.46450806 34.24254761 -74.86694336 33.57739258 C-77 32 -77 32 -77.80688477 29.3190918 C-77.87061279 28.5537915 -77.93434082 27.78849121 -78 27 C-73.61850237 27.60292098 -70.42690759 29.23207029 -66.58203125 31.37890625 C-46.99239317 42.35841079 -46.99239317 42.35841079 -25 43 C-25.55010742 42.74009277 -26.10021484 42.48018555 -26.66699219 42.21240234 C-32.59658064 39.40576292 -38.51202539 36.57068558 -44.42089844 33.72070312 C-46.88496434 32.53606899 -49.35101745 31.35704808 -51.82128906 30.18554688 C-55.05100624 28.6529068 -58.27108413 27.1014153 -61.48596191 25.53790283 C-62.74352333 24.93016952 -64.00420863 24.32885766 -65.26794434 23.73406982 C-67.04876206 22.89448111 -68.81766618 22.0297631 -70.5859375 21.1640625 C-71.6073584 20.67373535 -72.6287793 20.1834082 -73.68115234 19.67822266 C-76 18 -76 18 -76.94384766 15.50146484 C-77.02911447 11.70301357 -75.36116707 9.87168968 -73 7 C-71.25953674 5.65106201 -71.25953674 5.65106201 -69 5 C-66.03355408 5.99884033 -66.03355408 5.99884033 -62.53491211 7.77050781 C-61.89541122 8.088871 -61.25591034 8.40723419 -60.59703064 8.73524475 C-58.48248108 9.79275724 -56.38021352 10.87259835 -54.27734375 11.953125 C-52.8111846 12.69239727 -51.34434169 13.43031492 -49.87684631 14.16693115 C-46.01229503 16.1116505 -42.15790151 18.07574018 -38.30511475 20.04364014 C-35.15972494 21.64629615 -32.00768432 23.23559133 -28.85513973 24.82411575 C-22.34166187 28.10621743 -15.83265788 31.39723256 -9.33569336 34.71191406 C-7.60505898 35.59366302 -7.60505898 35.59366302 -5.83946228 36.4932251 C-3 38 -3 38 0 40 C0 26.8 0 13.6 0 0 Z " fill="#FCF9F9" transform="translate(103,59)"/>
<path d="M0 0 C28.38 0 56.76 0 86 0 C86 2.64 86 5.28 86 8 C78.08 8.33 70.16 8.66 62 9 C68.77477743 12.20351985 68.77477743 12.20351985 75.55200195 15.40185547 C76.39722412 15.80291504 77.24244629 16.20397461 78.11328125 16.6171875 C78.97735596 17.02565918 79.84143066 17.43413086 80.73168945 17.85498047 C83 19 83 19 86 21 C86 22.32 86 23.64 86 25 C81.21823781 24.43589761 77.6094658 23.04514569 73.32421875 20.875 C72.71359085 20.56804199 72.10296295 20.26108398 71.47383118 19.94482422 C70.19380211 19.29962815 68.91567763 18.65064076 67.6394043 17.99804688 C65.6795516 16.99593583 63.7144443 16.00482256 61.74804688 15.015625 C52.18018578 10.18018578 52.18018578 10.18018578 51 9 C49.65732587 8.91368126 48.31025678 8.89293527 46.96484375 8.90234375 C46.15595703 8.90556641 45.34707031 8.90878906 44.51367188 8.91210938 C43.2384668 8.92467773 43.2384668 8.92467773 41.9375 8.9375 C41.08349609 8.94201172 40.22949219 8.94652344 39.34960938 8.95117188 C37.23304337 8.96299627 35.11651315 8.98093231 33 9 C33.62196259 9.30876068 34.24392517 9.61752136 34.88473511 9.93563843 C41.34303862 13.14270982 47.79854661 16.35535513 54.25244141 19.57128906 C56.6629629 20.77207685 59.07446508 21.97086146 61.48681641 23.16796875 C64.94882077 24.88687597 68.40824157 26.61088581 71.8671875 28.3359375 C73.49223709 29.14072037 73.49223709 29.14072037 75.15011597 29.96176147 C76.1510025 30.46212921 77.15188904 30.96249695 78.18310547 31.47802734 C79.06690887 31.91770844 79.95071228 32.35738953 80.86129761 32.81039429 C83 34 83 34 85 36 C84.8625607 40.94781498 82.1736669 43.5008288 79 47 C74.73234806 45.67198511 70.83930968 44.03739505 66.8515625 42.0234375 C65.68947266 41.43916992 64.52738281 40.85490234 63.33007812 40.25292969 C62.09502077 39.62701492 60.85999535 39.00103711 59.625 38.375 C58.35111361 37.73299717 57.07702382 37.09139777 55.80273438 36.45019531 C53.30794939 35.19429433 50.81414526 33.93648282 48.32128906 32.67675781 C44.38630408 30.69017469 40.44452976 28.71753775 36.5 26.75 C35.302018 26.15117235 34.10410179 25.55221307 32.90625 24.953125 C32.29910156 24.64955078 31.69195312 24.34597656 31.06640625 24.03320312 C23.7109375 20.35546875 16.35546875 16.67773438 9 13 C8.67 25.54 8.34 38.08 8 51 C5.36 51 2.72 51 0 51 C0 34.17 0 17.34 0 0 Z " fill="#FEFDFE" transform="translate(139,139)"/>
<path d="M0 0 C2.64 0 5.28 0 8 0 C8.33 12.87 8.66 25.74 9 39 C13.86234375 36.52242187 18.7246875 34.04484375 23.734375 31.4921875 C26.81423629 29.93182407 29.89451539 28.3724292 32.9765625 26.81640625 C37.87094308 24.34528363 42.76336867 21.87072793 47.64550781 19.37548828 C51.58074206 17.36448087 55.52353801 15.36910814 59.47211456 13.38443375 C60.97885486 12.62365996 62.48276223 11.85724901 63.98375702 11.08520126 C66.0832364 10.00651788 68.19180467 8.94813782 70.30371094 7.89404297 C70.92518005 7.56892731 71.54664917 7.24381165 72.18695068 6.90884399 C76.45503734 4.81542785 76.45503734 4.81542785 79.41851807 5.81912231 C79.9404071 6.20881195 80.46229614 6.59850159 81 7 C80 10 80 10 77.47024536 11.56887817 C76.34456146 12.1276767 75.21887756 12.68647522 74.05908203 13.26220703 C73.12974854 13.7286261 73.12974854 13.7286261 72.18164062 14.20446777 C70.12836119 15.2319162 68.06830098 16.24490919 66.0078125 17.2578125 C64.58112666 17.96776149 63.15485197 18.67853727 61.72897339 19.3901062 C57.96981057 21.26297193 54.20461887 23.12340356 50.43823242 24.98168945 C47.36520743 26.50052597 44.29664453 28.02824822 41.22827339 29.55645943 C37.57300168 31.37669812 33.91566012 33.19275682 30.2578125 35.0078125 C29.55865849 35.35493412 28.85950447 35.70205574 28.13916397 36.0596962 C26.16044976 37.04091214 24.18034677 38.01925983 22.19970703 38.99658203 C21.07243195 39.55378937 19.94515686 40.1109967 18.78372192 40.68508911 C16 42 16 42 13 43 C29.68590148 45.55008634 41.75453793 38.69490415 56.1663208 30.9473877 C60.29421974 28.73941198 64.45477733 26.59316879 68.60951233 24.4362793 C70.80977483 23.28951523 73.0047092 22.13245691 75.19358826 20.96411133 C76.17634232 20.44357178 77.15909637 19.92303223 78.17163086 19.38671875 C79.4658622 18.69388794 79.4658622 18.69388794 80.78623962 17.98706055 C83 17 83 17 86 17 C86 21.62 86 26.24 86 31 C82.91693345 32.62550785 79.83355841 34.25042568 76.75 35.875 C75.87730469 36.33519531 75.00460938 36.79539063 74.10546875 37.26953125 C73.26113281 37.71425781 72.41679687 38.15898438 71.546875 38.6171875 C70.77182617 39.02565918 69.99677734 39.43413086 69.19824219 39.85498047 C67.14345108 40.92527926 65.07223667 41.96388167 63 43 C70.59 43.33 78.18 43.66 86 44 C86 46.64 86 49.28 86 52 C57.62 52 29.24 52 0 52 C0 34.84 0 17.68 0 0 Z " fill="#FCFAFB" transform="translate(139,59)"/>
<path d="M0 0 C28.38 0 56.76 0 86 0 C86 16.83 86 33.66 86 51 C83.36 51 80.72 51 78 51 C77.67 38.46 77.34 25.92 77 13 C72.13765625 15.47757813 67.2753125 17.95515625 62.265625 20.5078125 C59.18576371 22.06817593 56.10548461 23.6275708 53.0234375 25.18359375 C48.12905692 27.65471637 43.23663133 30.12927207 38.35449219 32.62451172 C34.41925794 34.63551913 30.47646199 36.63089186 26.52788544 38.61556625 C25.02114514 39.37634004 23.51723777 40.14275099 22.01624298 40.91479874 C19.9167636 41.99348212 17.80819533 43.05186218 15.69628906 44.10595703 C15.07481995 44.43107269 14.45335083 44.75618835 13.81304932 45.09115601 C9.54496266 47.18457215 9.54496266 47.18457215 6.58148193 46.18087769 C6.0595929 45.79118805 5.53770386 45.40149841 5 45 C7.60424003 40.31656833 11.82072179 38.94425904 16.5 36.875 C23.168663 33.82442116 29.72197499 30.64830257 36.1875 27.1875 C43.73785333 23.16112642 51.34820229 19.26768574 59 15.4375 C60.04567139 14.91244873 61.09134277 14.38739746 62.16870117 13.84643555 C63.14427979 13.35957275 64.1198584 12.87270996 65.125 12.37109375 C65.99382812 11.93724365 66.86265625 11.50339355 67.7578125 11.05639648 C70 10 70 10 73 9 C56.31409852 6.44991366 44.24546207 13.30509585 29.8336792 21.0526123 C25.70578026 23.26058802 21.54522267 25.40683121 17.39048767 27.5637207 C15.19022517 28.71048477 12.9952908 29.86754309 10.80641174 31.03588867 C9.82365768 31.55642822 8.84090363 32.07696777 7.82836914 32.61328125 C6.96554825 33.07516846 6.10272736 33.53705566 5.21376038 34.01293945 C3 35 3 35 0 35 C0 30.38 0 25.76 0 21 C3.08306655 19.37449215 6.16644159 17.74957432 9.25 16.125 C10.12269531 15.66480469 10.99539062 15.20460937 11.89453125 14.73046875 C13.16103516 14.06337891 13.16103516 14.06337891 14.453125 13.3828125 C15.22817383 12.97434082 16.00322266 12.56586914 16.80175781 12.14501953 C18.85654892 11.07472074 20.92776333 10.03611833 23 9 C11.615 8.505 11.615 8.505 0 8 C0 5.36 0 2.72 0 0 Z " fill="#F9F7F8" transform="translate(25,139)"/>
<path d="M0 0 C0 12.54 0 25.08 0 38 C-15.77167514 38.12032643 -15.77167514 38.12032643 -22.50585938 38.14648438 C-27.09702992 38.16440274 -31.6880206 38.18557715 -36.27905273 38.22631836 C-39.98137696 38.25896667 -43.68350825 38.27686447 -47.38596535 38.28463173 C-48.79694467 38.29016547 -50.20791369 38.30097164 -51.61881065 38.31719017 C-53.59822627 38.33903449 -55.57783693 38.340226 -57.55737305 38.34057617 C-58.68322311 38.34723801 -59.80907318 38.35389984 -60.96903992 38.36076355 C-64.34558723 37.95886608 -66.24449374 36.9427531 -69 35 C-66.38988781 31.96418647 -63.37141722 30.49855617 -59.81616211 28.72192383 C-59.1947081 28.40937149 -58.57325409 28.09681915 -57.93296814 27.77479553 C-55.88400569 26.74627072 -53.83083804 25.7264741 -51.77734375 24.70703125 C-50.35132245 23.99427995 -48.92550838 23.28111389 -47.49989319 22.56755066 C-44.51506576 21.07518176 -41.52821672 19.58696434 -38.53979492 18.10180664 C-34.70390405 16.19522507 -30.87252273 14.27978194 -27.04251766 12.36140919 C-24.10074427 10.8888546 -21.1569946 9.42028869 -18.21258736 7.95300865 C-16.79861656 7.24795123 -15.38518681 6.54180767 -13.97230339 5.83457375 C-12.00162574 4.84905016 -10.02843871 3.86875008 -8.05444336 2.88989258 C-6.93098007 2.33046463 -5.80751678 1.77103668 -4.65000916 1.19465637 C-2 0 -2 0 0 0 Z " fill="#032267" transform="translate(102,152)"/>
<path d="M0 0 C1.26085419 0.00022659 2.52170837 0.00045319 3.82077026 0.00068665 C5.1814612 0.01600294 6.54214845 0.03165087 7.90283203 0.04760742 C9.30672755 0.05320879 10.71062897 0.05747634 12.11453247 0.06047058 C15.7938684 0.0718769 19.47284411 0.10130699 23.15203857 0.13458252 C26.91266928 0.16537487 30.67336042 0.17916025 34.43408203 0.1940918 C41.80158676 0.22458644 49.16810473 0.2833155 56.53564453 0.34057617 C56.53564453 12.88057617 56.53564453 25.42057617 56.53564453 38.34057617 C52.08737644 36.85782014 48.32856461 35.36555545 44.17895508 33.29956055 C43.57496384 33.00012039 42.9709726 32.70068024 42.34867859 32.39216614 C40.371173 31.41031242 38.39665348 30.42262754 36.42236328 29.43432617 C35.04336656 28.74677261 33.66428092 28.0593974 32.28511047 27.37219238 C29.40493384 25.93582363 26.52631536 24.49638766 23.64868164 23.05493164 C19.95530775 21.20533444 16.2574432 19.3649174 12.55829144 17.52690887 C9.71414118 16.11218213 6.87276601 14.6919537 4.03217506 13.27009583 C2.66910977 12.58882033 1.30509468 11.90944179 -0.05986977 11.23197937 C-1.96103633 10.28753648 -3.85825715 9.33559801 -5.75463867 8.3815918 C-6.83574417 7.84135376 -7.91684967 7.30111572 -9.03071594 6.74450684 C-11.46435547 5.34057617 -11.46435547 5.34057617 -12.46435547 3.34057617 C-8.10302563 0.85628702 -5.00660413 -0.03016027 0 0 Z " fill="#032269" transform="translate(45.46435546875,59.659423828125)"/>
<path d="M0 0 C4.25179898 1.41726633 7.77566171 2.76861781 11.7109375 4.7578125 C12.78263184 5.29688232 13.85432617 5.83595215 14.95849609 6.39135742 C16.08594238 6.96345947 17.21338867 7.53556152 18.375 8.125 C20.12611084 9.007323 20.12611084 9.007323 21.91259766 9.9074707 C24.2341638 11.07725833 26.55498455 12.24852664 28.875 13.42138672 C32.08769184 15.04429808 35.30493608 16.65770364 38.52563477 18.26464844 C39.74812379 18.87468256 40.96997876 19.48598914 42.19116211 20.09863281 C45.91099703 21.9642381 49.64159426 23.8063455 53.37890625 25.63671875 C54.30074707 26.09087158 55.22258789 26.54502441 56.17236328 27.01293945 C57.98474163 27.90568701 59.79945052 28.79372227 61.61669922 29.67651367 C62.43283691 30.07974854 63.24897461 30.4829834 64.08984375 30.8984375 C64.82066162 31.25599121 65.55147949 31.61354492 66.30444336 31.98193359 C68 33 68 33 69 35 C64.63867016 37.48428915 61.54224866 38.37073644 56.53564453 38.34057617 C55.27479034 38.34034958 54.01393616 38.34012299 52.71487427 38.33988953 C51.35418333 38.32457323 49.99349608 38.3089253 48.6328125 38.29296875 C47.22891698 38.28736738 45.82501556 38.28309984 44.42111206 38.28010559 C40.74177613 38.26869927 37.06280043 38.23926918 33.38360596 38.20599365 C29.62297526 38.1752013 25.86228412 38.16141592 22.1015625 38.14648438 C14.73405777 38.11598974 7.3675398 38.05726067 0 38 C0 25.46 0 12.92 0 0 Z " fill="#032166" transform="translate(148,152)"/>
<path d="M0 0 C8.10343555 -0.06298007 16.20598031 -0.1230766 24.30944824 -0.15525055 C28.08335891 -0.1710662 31.85706613 -0.19218725 35.63085938 -0.22631836 C39.26835002 -0.25900935 42.90564385 -0.2768734 46.54327011 -0.28463173 C47.92830374 -0.29015785 49.31332709 -0.30094905 50.69827652 -0.31719017 C52.64395821 -0.33909128 54.58983961 -0.34022648 56.53564453 -0.34057617 C57.64150909 -0.34723801 58.74737366 -0.35389984 59.88674927 -0.36076355 C63.4577959 0.0530494 65.89524647 1.23147852 69 3 C66.38988781 6.03581353 63.37141722 7.50144383 59.81616211 9.27807617 C59.1947081 9.59062851 58.57325409 9.90318085 57.93296814 10.22520447 C55.88400569 11.25372928 53.83083804 12.2735259 51.77734375 13.29296875 C50.35132245 14.00572005 48.92550838 14.71888611 47.49989319 15.43244934 C44.51506576 16.92481824 41.52821672 18.41303566 38.53979492 19.89819336 C34.70390405 21.80477493 30.87252273 23.72021806 27.04251766 25.63859081 C24.10074427 27.1111454 21.1569946 28.57971131 18.21258736 30.04699135 C16.79861656 30.75204877 15.38518681 31.45819233 13.97230339 32.16542625 C12.00162574 33.15094984 10.02843871 34.13124992 8.05444336 35.11010742 C6.36924843 35.94924934 6.36924843 35.94924934 4.65000916 36.80534363 C2 38 2 38 0 38 C0 25.46 0 12.92 0 0 Z " fill="#032269" transform="translate(148,60)"/>
<path d="M0 0 C-2.13581183 2.13581183 -3.83276118 2.9832756 -6.55859375 4.25 C-7.49219727 4.68844238 -8.42580078 5.12688477 -9.38769531 5.57861328 C-10.39413086 6.0476709 -11.40056641 6.51672852 -12.4375 7 C-19.96680448 10.54919469 -27.41364173 14.19200268 -34.75 18.125 C-41.98621542 22.00234187 -49.32014243 25.60155869 -56.77246094 29.04541016 C-59.90037599 30.4967356 -62.86499979 31.91510491 -65.7890625 33.75390625 C-68 35 -68 35 -72 35 C-72.66 32.69 -73.32 30.38 -74 28 C-65.22855316 22.3845691 -56.09349627 17.56792507 -46.84179688 12.79614258 C-44.79377978 11.73057209 -42.75383476 10.64932977 -40.72265625 9.55200195 C-26.76173176 2.02122693 -15.93292393 -1.77020279 0 0 Z " fill="#C31A34" transform="translate(100,147)"/>
<path d="M0 0 C1.78886414 1.2651825 1.78886414 1.2651825 2.53886414 3.8901825 C2.62136414 4.6739325 2.70386414 5.4576825 2.78886414 6.2651825 C-5.9825827 11.88061339 -15.1176396 16.69725742 -24.36933899 21.46903992 C-26.41735609 22.5346104 -28.4573011 23.61585273 -30.48847961 24.71318054 C-44.44940411 32.24395556 -55.27821194 36.03538528 -71.21113586 34.2651825 C-69.25718904 32.31123567 -67.99530017 31.57313089 -65.53144836 30.4370575 C-64.7255426 30.05960388 -63.91963684 29.68215027 -63.08930969 29.29325867 C-61.72648865 28.66061096 -61.72648865 28.66061096 -60.33613586 28.0151825 C-51.81606464 24.02914666 -43.40896787 19.85871115 -35.03535461 15.57377625 C-33.04249016 14.55885904 -31.04948775 13.54421269 -29.05635071 12.52983093 C-26.03585173 10.99247573 -23.0185516 9.45004807 -20.0092926 7.89079285 C-17.15265294 6.41143743 -14.28664052 4.9518955 -11.41816711 3.49565125 C-10.54923325 3.03895554 -9.68029938 2.58225983 -8.78503418 2.11172485 C-7.57440056 1.50355675 -7.57440056 1.50355675 -6.33930969 0.88310242 C-5.63590958 0.52101181 -4.93250946 0.1589212 -4.20779419 -0.21414185 C-2.21113586 -0.7348175 -2.21113586 -0.7348175 0 0 Z " fill="#C81734" transform="translate(221.2111358642578,68.73481750488281)"/>
<path d="M0 0 C9.27075221 4.30400945 18.53266395 8.64087777 27.625 13.3125 C28.25736572 13.62509766 28.88973145 13.93769531 29.54125977 14.25976562 C33.73160983 16.45590942 33.73160983 16.45590942 35.00390625 19.03515625 C34.99710656 22.45540247 33.07575615 24.41933019 31 27 C29.31079102 28.38183594 29.31079102 28.38183594 27 29 C24.38370898 28.05334465 22.15517223 27.05528153 19.71484375 25.765625 C19.01734512 25.41240173 18.3198465 25.05917847 17.60121155 24.69525146 C15.37206424 23.56159908 13.15511798 22.40601535 10.9375 21.25 C9.44017644 20.48556074 7.94213665 19.72252263 6.44335938 18.9609375 C-4.24700802 13.50199465 -4.24700802 13.50199465 -8 11 C-7.34 11 -6.68 11 -6 11 C-5.7525 10.29875 -5.505 9.5975 -5.25 8.875 C-3.83930051 5.63039117 -1.98887941 2.91864011 0 0 Z " fill="#E8E7E8" transform="translate(189,157)"/>
<path d="M0 0 C0.70270745 -0.00538554 1.40541491 -0.01077108 2.12941653 -0.01631981 C4.46614427 -0.0305402 6.80230076 -0.02351068 9.13905334 -0.01637268 C10.82167005 -0.02207936 12.50428289 -0.02904477 14.18688965 -0.03717041 C18.74477419 -0.05508389 23.30246602 -0.05393687 27.86037517 -0.04822803 C31.66999459 -0.04513361 35.47957714 -0.05123143 39.28919131 -0.05726677 C48.27856466 -0.07130439 57.26784296 -0.06975701 66.25721741 -0.05836487 C75.52143271 -0.04688364 84.78535853 -0.06096112 94.04953569 -0.08776134 C102.01323861 -0.1099342 109.97685075 -0.11655217 117.94058233 -0.11068493 C122.69268672 -0.10731804 127.44460554 -0.10971266 132.19668388 -0.12693596 C136.66607429 -0.14242837 141.13503654 -0.1384242 145.60441017 -0.11963081 C147.24102574 -0.11595131 148.8776732 -0.11903477 150.51425934 -0.1295166 C160.22706258 -0.1869567 167.63252731 -0.15708498 175.18226624 6.63768005 C175.67726624 7.21518005 176.17226624 7.79268005 176.68226624 8.38768005 C176.35226624 9.04768005 176.02226624 9.70768005 175.68226624 10.38768005 C175.05578186 9.96615662 174.42929749 9.54463318 173.78382874 9.1103363 C172.96656311 8.56248474 172.14929749 8.01463318 171.30726624 7.45018005 C170.49515686 6.90490662 169.68304749 6.35963318 168.84632874 5.7978363 C165.1965425 3.41954599 163.03814292 3.24324009 158.67201233 3.18235779 C157.41085602 3.16241257 156.14969971 3.14246735 154.85032654 3.12191772 C153.46878687 3.10493341 152.08724589 3.0880546 150.70570374 3.0712738 C149.29608041 3.05070445 147.88646326 3.02970798 146.47685242 3.00830078 C142.76479588 2.9530781 139.05268367 2.90366974 135.3405304 2.85545349 C130.88761802 2.79641303 126.43480752 2.730184 121.98197937 2.6651535 C115.21547049 2.56714149 108.44889659 2.47828735 101.68226624 2.38768005 C101.68226624 15.25768005 101.68226624 28.12768005 101.68226624 41.38768005 C101.35226624 41.38768005 101.02226624 41.38768005 100.68226624 41.38768005 C100.68226624 28.18768005 100.68226624 14.98768005 100.68226624 1.38768005 C98.04226624 1.71768005 95.40226624 2.04768005 92.68226624 2.38768005 C90.47513347 2.47289133 88.26604207 2.51818625 86.05726624 2.52049255 C84.85585999 2.52178162 83.65445374 2.52307068 82.41664124 2.5243988 C81.18429749 2.52053162 79.95195374 2.51666443 78.68226624 2.51268005 C76.83375061 2.51848083 76.83375061 2.51848083 74.94789124 2.5243988 C73.74648499 2.52310974 72.54507874 2.52182068 71.30726624 2.52049255 C70.22703186 2.51936462 69.14679749 2.51823669 68.03382874 2.51707458 C64.23412369 2.37037851 60.45543834 1.85932657 56.68226624 1.38768005 C56.68226624 14.58768005 56.68226624 27.78768005 56.68226624 41.38768005 C56.02226624 41.05768005 55.36226624 40.72768005 54.68226624 40.38768005 C55.01226624 27.84768005 55.34226624 15.30768005 55.68226624 2.38768005 C47.59565198 2.43435604 39.51060207 2.48479482 31.42456818 2.57147217 C27.65864254 2.61076175 23.89295143 2.64318411 20.12684631 2.65867615 C16.49554749 2.67388363 12.86488708 2.70839989 9.23387337 2.75598907 C7.85254547 2.77076108 6.4711264 2.77871867 5.08971977 2.7795639 C-2.53635614 2.78891811 -8.06470981 2.81720115 -14.31773376 7.38768005 C-16.75523376 8.13768005 -16.75523376 8.13768005 -18.31773376 8.38768005 C-13.64570086 1.47307136 -8.00314192 0.01553824 0 0 Z " fill="#A9A8B2" transform="translate(46.31773376464844,57.61231994628906)"/>
<path d="M0 0 C14.7698345 -1.40072192 24.15817844 0.89138854 36.74707031 8.63964844 C40.31118107 10.79171011 43.99840442 12.69817167 47.6875 14.625 C48.92135195 15.28239409 50.1545119 15.94109002 51.38671875 16.6015625 C52.24910156 17.06304687 53.11148438 17.52453125 54 18 C54 20.97 54 23.94 54 27 C47.94591777 25.26898093 42.51082441 22.38141706 36.9140625 19.5546875 C35.85714203 19.02481232 34.80022156 18.49493713 33.71127319 17.94900513 C30.34728054 16.26142656 26.98611782 14.56829588 23.625 12.875 C21.34002837 11.72749689 19.05487415 10.58035728 16.76953125 9.43359375 C11.17756465 6.62660499 5.58790907 3.8150567 0 1 C0 0.67 0 0.34 0 0 Z " fill="#B8142D" transform="translate(170,147)"/>
<path d="M0 0 C5.68840507 1.65753299 10.7731388 4.26782273 16.03515625 6.9375 C16.99143417 7.41823975 17.9477121 7.89897949 18.93296814 8.39428711 C21.97807871 9.92572097 25.02045357 11.4624897 28.0625 13 C31.10845904 14.53681276 34.15500136 16.07243927 37.20274353 17.60571289 C39.09592338 18.55840482 40.98802985 19.51323353 42.87892151 20.47045898 C43.74009079 20.90430908 44.60126007 21.33815918 45.48852539 21.78515625 C46.24098038 22.16551025 46.99343536 22.54586426 47.76869202 22.93774414 C50.14225102 24.06772126 52.55011145 25.04836574 55 26 C55 26.33 55 26.66 55 27 C34.86260185 30.48531891 16.39109114 19.9273941 0 9 C-0.29296875 6.8359375 -0.29296875 6.8359375 -0.1875 4.375 C-0.16042969 3.55773437 -0.13335938 2.74046875 -0.10546875 1.8984375 C-0.05326172 0.95871094 -0.05326172 0.95871094 0 0 Z " fill="#C91A35" transform="translate(25,76)"/>
<path d="M0 0 C2.31 0 4.62 0 7 0 C7 8.58 7 17.16 7 26 C-0.59 26 -8.18 26 -16 26 C-4.85714286 4.85714286 -4.85714286 4.85714286 0 0 Z " fill="#B80F2A" transform="translate(217,112)"/>
<path d="M0 0 C2.26422521 0.07261364 4.52721614 0.20315682 6.78515625 0.38671875 C7.94595703 0.43634766 9.10675781 0.48597656 10.30273438 0.53710938 C13.15752076 0.66633839 15.99931293 0.84654234 18.84765625 1.07421875 C18.84765625 3.71421875 18.84765625 6.35421875 18.84765625 9.07421875 C10.92765625 9.40421875 3.00765625 9.73421875 -5.15234375 10.07421875 C1.62243368 13.2777386 1.62243368 13.2777386 8.3996582 16.47607422 C9.24488037 16.87713379 10.09010254 17.27819336 10.9609375 17.69140625 C11.82501221 18.09987793 12.68908691 18.50834961 13.5793457 18.92919922 C15.84765625 20.07421875 15.84765625 20.07421875 18.84765625 22.07421875 C18.84765625 23.39421875 18.84765625 24.71421875 18.84765625 26.07421875 C14.21917851 25.51309923 10.71898686 24.24623386 6.57421875 22.1328125 C5.42050781 21.54951172 4.26679688 20.96621094 3.078125 20.36523438 C1.87621204 19.74757101 0.67439023 19.12973026 -0.52734375 18.51171875 C-1.75222829 17.88923379 -2.97748552 17.26748159 -4.203125 16.64648438 C-7.18994026 15.12955852 -10.17275695 13.60528067 -13.15234375 12.07421875 C-10.14595271 5.42115516 -7.82716426 0.40336452 0 0 Z " fill="#E7E4E5" transform="translate(206.15234375,137.92578125)"/>
<path d="M0 0 C0.33 0 0.66 0 1 0 C1 12.87 1 25.74 1 39 C9.08661426 38.95332402 17.17166417 38.90288523 25.25769806 38.81620789 C29.02362369 38.7769183 32.78931481 38.74449595 36.55541992 38.72900391 C40.18671875 38.71379643 43.81737916 38.67928016 47.44839287 38.63169098 C48.82972077 38.61691897 50.21113984 38.60896139 51.59254646 38.60811615 C62.01539025 38.65468385 62.01539025 38.65468385 71 34 C73.8315783 30.93245684 75.93227255 27.61852304 78 24 C79 27 79 27 78.1796875 28.90234375 C74.4376239 34.73951481 70.81029254 38.89114312 64 41 C60.7803912 41.28209926 57.57452899 41.25263701 54.34448242 41.22705078 C53.3781488 41.22734283 52.41181519 41.22763489 51.41619873 41.22793579 C48.2291967 41.22654492 45.04242983 41.21099498 41.85546875 41.1953125 C39.64301176 41.19158151 37.43055311 41.18873494 35.21809387 41.18673706 C29.40002873 41.17910739 23.58206372 41.15946452 17.76403809 41.1373291 C11.82512771 41.11685639 5.88620113 41.10773229 -0.05273438 41.09765625 C-11.70186687 41.07621808 -23.3509251 41.04209008 -35 41 C-35 40.34 -35 39.68 -35 39 C-23.45 39 -11.9 39 0 39 C0 26.13 0 13.26 0 0 Z " fill="#ABA7B2" transform="translate(147,151)"/>
<path d="M0 0 C8.25 0 16.5 0 25 0 C22.00700426 2.2447468 19.55349869 3.84680837 16.26953125 5.48046875 C14.94211914 6.14272461 14.94211914 6.14272461 13.58789062 6.81835938 C12.21407227 7.49608398 12.21407227 7.49608398 10.8125 8.1875 C9.88501953 8.65091797 8.95753906 9.11433594 8.00195312 9.59179688 C1.14037187 13 1.14037187 13 0 13 C0 8.71 0 4.42 0 0 Z " fill="#1F3773" transform="translate(25,147)"/>
<path d="M0 0 C3.04205093 1.43669138 6.08365047 2.87432518 9.125 4.3125 C10.40890625 4.91868164 10.40890625 4.91868164 11.71875 5.53710938 C16.17134691 7.64353022 20.60584463 9.77410818 25 12 C25 12.33 25 12.66 25 13 C16.75 13 8.5 13 0 13 C0 8.71 0 4.42 0 0 Z " fill="#1C3572" transform="translate(25,90)"/>
<path d="M0 0 C0 4.29 0 8.58 0 13 C-8.25 13 -16.5 13 -25 13 C-22.00700426 10.7552532 -19.55349869 9.15319163 -16.26953125 7.51953125 C-15.38458984 7.07802734 -14.49964844 6.63652344 -13.58789062 6.18164062 C-12.21407227 5.50391602 -12.21407227 5.50391602 -10.8125 4.8125 C-9.88501953 4.34908203 -8.95753906 3.88566406 -8.00195312 3.40820312 C-1.14037187 0 -1.14037187 0 0 0 Z " fill="#1E3773" transform="translate(225,90)"/>
<path d="M0 0 C6.93 0 13.86 0 21 0 C21 3.63 21 7.26 21 11 C15.99886406 9.51991304 11.67084403 7.3681664 7.125 4.875 C6.43664062 4.50246094 5.74828125 4.12992188 5.0390625 3.74609375 C3.35705202 2.83500474 1.67819564 1.91809685 0 1 C0 0.67 0 0.34 0 0 Z " fill="#062162" transform="translate(203,148)"/>
<path d="M0 0 C3.27075883 -0.0580476 6.54138524 -0.09361165 9.8125 -0.125 C10.74126953 -0.14175781 11.67003906 -0.15851563 12.62695312 -0.17578125 C13.51962891 -0.18222656 14.41230469 -0.18867188 15.33203125 -0.1953125 C16.15421143 -0.20578613 16.9763916 -0.21625977 17.82348633 -0.22705078 C20 0 20 0 23 2 C21.7191375 5.64553172 20.83328987 7.16671013 18 10 C12.06 7.03 6.12 4.06 0 1 C0 0.67 0 0.34 0 0 Z " fill="#CB2A42" transform="translate(170,147)"/>
<path d="M0 0 C0.99 0.33 1.98 0.66 3 1 C3.33 3.31 3.66 5.62 4 8 C4.99 8.33 5.98 8.66 7 9 C7.78375 9.804375 8.5675 10.60875 9.375 11.4375 C11.92427486 13.92607784 13.65213121 14.94781267 17 16 C17 16.66 17 17.32 17 18 C10.03427298 16.37466369 5.95479311 14.02943867 2 8 C0.15793619 4.86787129 0 3.85898502 0 0 Z " fill="#CDCDCE" transform="translate(24,174)"/>
<path d="M0 0 C1 3 1 3 0.1796875 4.90234375 C-3.56815281 10.74852579 -7.17153725 14.84364334 -14 17 C-14.99 17 -15.98 17 -17 17 C-17 16.34 -17 15.68 -17 15 C-16.11248047 14.67128906 -16.11248047 14.67128906 -15.20703125 14.3359375 C-7.4440801 11.22062595 -4.09452208 7.32703951 0 0 Z " fill="#CACACB" transform="translate(225,175)"/>
<path d="M0 0 C0.99 0 1.98 0 3 0 C3 2.64 3 5.28 3 8 C0.69 8 -1.62 8 -4 8 C-2.68 5.36 -1.36 2.72 0 0 Z " fill="#E8E8E8" transform="translate(222,103)"/>
<path d="M0 0 C0.99 0.33 1.98 0.66 3 1 C3.33 3.31 3.66 5.62 4 8 C4.99 8.33 5.98 8.66 7 9 C4.625 8.75 4.625 8.75 2 8 C-0.09862498 5.10189884 0 3.71621139 0 0 Z " fill="#CDBDBF" transform="translate(24,174)"/>
<path d="M0 0 C1.875 0.125 1.875 0.125 4 1 C5.3125 3.9375 5.3125 3.9375 6 7 C5.67 7.66 5.34 8.32 5 9 C3 8 3 8 1.9375 5.0625 C1.628125 4.051875 1.31875 3.04125 1 2 C0.67 1.34 0.34 0.68 0 0 Z " fill="#D0B7B9" transform="translate(220,67)"/>
</svg>
