<?xml version="1.0" encoding="UTF-8"?>
<svg version="1.1" xmlns="http://www.w3.org/2000/svg" width="250" height="250">
<path d="M0 0 C0.68551882 -0.00382555 1.37103764 -0.00765109 2.07732975 -0.01159257 C4.36178257 -0.021866 6.64598137 -0.01794128 8.93045044 -0.01396179 C10.57350903 -0.01831143 12.21656558 -0.02349542 13.85961914 -0.02944946 C18.3142273 -0.04282423 22.76875053 -0.04341979 27.22337484 -0.04088616 C30.94595048 -0.03981534 34.66850901 -0.04470273 38.39108098 -0.04949158 C47.17570155 -0.06058169 55.96027937 -0.06102709 64.74490356 -0.05497742 C73.79830763 -0.04893837 82.85155626 -0.06124803 91.90493381 -0.08254749 C99.6860172 -0.10017854 107.46705118 -0.10616244 115.24815381 -0.10290974 C119.89181631 -0.10109901 124.53536794 -0.10371203 129.1790123 -0.11762428 C133.54736752 -0.13022235 137.91548094 -0.12823985 142.28383255 -0.11521339 C143.88336011 -0.1128523 145.4829048 -0.11556552 147.08241272 -0.12383652 C156.288019 -0.16799095 163.72823977 -0.06502679 171.70437622 5.01069641 C176.6203428 9.92666299 179.05467087 15.53711189 179.10827637 22.47080994 C179.11687683 23.3032724 179.12547729 24.13573486 179.13433838 24.99342346 C179.1407283 26.35089691 179.1407283 26.35089691 179.14724731 27.73579407 C179.15951355 29.17561142 179.15951355 29.17561142 179.17202759 30.64451599 C179.19683895 33.82125736 179.21338847 36.9979541 179.22781372 40.17475891 C179.2331374 41.26186535 179.23846107 42.34897179 179.24394608 43.46902084 C179.27066158 49.22525578 179.29003999 54.98146917 179.30447388 60.73774719 C179.31780208 65.49250065 179.34563702 70.24682385 179.38650513 75.00141907 C179.43592012 80.75083397 179.4606061 86.4998592 179.46770096 92.24947739 C179.47439802 94.43504973 179.48957954 96.62061391 179.51359177 98.80606461 C179.54537443 101.87424266 179.5452599 104.94093067 179.53787231 108.00923157 C179.55427765 108.90206848 179.57068298 109.7949054 179.58758545 110.71479797 C179.52200134 117.41144402 177.71729118 122.69299235 173.95437622 128.26069641 C167.90689652 134.02772037 163.36704981 135.37927421 155.07333374 135.40786743 C154.03536813 135.41338246 154.03536813 135.41338246 152.97643352 135.41900891 C150.65820114 135.43002012 148.34001362 135.43388521 146.02175903 135.43769836 C144.35929218 135.44396492 142.69682672 135.45061189 141.03436279 135.45761108 C135.57541882 135.4786298 130.11647463 135.48901093 124.65750122 135.49897766 C122.77681209 135.50302593 120.8961231 135.50714288 119.01543427 135.51132774 C110.17986167 135.53037403 101.34429741 135.54460665 92.50870824 135.55293971 C82.31531902 135.56271259 72.12214692 135.5890358 61.9288342 135.62944061 C54.04588934 135.65961351 46.16300669 135.67440968 38.28000522 135.67772073 C33.5736596 135.68006972 28.8675461 135.68901072 24.16126251 135.7141819 C19.73216517 135.73748843 15.30345235 135.74168553 10.87430954 135.73142052 C9.25219569 135.73092569 7.63006273 135.73723061 6.00800705 135.75097656 C-3.95696039 135.83067331 -10.97106628 135.5458783 -18.85812378 128.88569641 C-23.95309364 122.77173258 -24.4892538 117.73447702 -24.46554565 110.06782532 C-24.4740152 109.05567459 -24.48248474 108.04352386 -24.49121094 107.0007019 C-24.51456414 103.6627589 -24.51560343 100.32527735 -24.51437378 96.98725891 C-24.52147657 94.66087154 -24.52917574 92.33448593 -24.53744507 90.00810242 C-24.55088622 85.13424306 -24.55246031 80.26054567 -24.54660034 75.38667297 C-24.54070611 69.1500636 -24.57128712 62.91423318 -24.61171722 56.67777443 C-24.6376046 51.87353856 -24.64047062 47.06948994 -24.63682556 42.26519394 C-24.63851596 39.96634845 -24.64815064 37.66749424 -24.66596985 35.36871719 C-24.68817805 32.14940466 -24.67844678 28.93166509 -24.66085815 25.71235657 C-24.6741214 24.7687175 -24.68738464 23.82507843 -24.7010498 22.85284424 C-24.61041571 15.69018576 -22.52748983 10.94149743 -17.60295868 5.73560524 C-12.29786173 0.94484393 -6.95544264 0.01167538 0 0 Z " fill="#FCFCFC" transform="translate(44.045623779296875,55.73930358886719)"/>
<path d="M0 0 C51.92307692 0 51.92307692 0 59.75 4.625 C65.57008704 10.76842521 66.59434337 17.99048825 66.54931641 26.15039062 C66.55953827 27.12235886 66.56976013 28.09432709 66.58029175 29.0957489 C66.60790916 32.28283874 66.6061845 35.46905534 66.6015625 38.65625 C66.60934478 40.88627438 66.61801584 43.11629582 66.62753296 45.34631348 C66.64241882 50.00978223 66.64190221 54.67294803 66.63134766 59.33642578 C66.61974952 65.29837681 66.65365755 71.25908693 66.700037 77.22083282 C66.72956402 81.82268462 66.73124836 86.42423908 66.72501755 91.02616882 C66.72604091 93.22371381 66.73645899 95.4212761 66.75664139 97.61872864 C66.78144718 100.69649997 66.76774856 103.77187356 66.74462891 106.84960938 C66.76756012 108.19650093 66.76756012 108.19650093 66.79095459 109.57060242 C66.67816338 116.39819546 64.43049625 120.83305321 60 126 C45.32527759 139.07687234 9.90388193 131 0 131 C0 87.77 0 44.54 0 0 Z " fill="#B9031C" transform="translate(155,58)"/>
<path d="M0 0 C0 43.23 0 86.46 0 131 C-53.43243243 131 -53.43243243 131 -59.75 125.6875 C-64.85711778 119.58733154 -65.43811432 114.62310232 -65.38818359 106.95898438 C-65.39344055 105.9631282 -65.39869751 104.96727203 -65.40411377 103.9412384 C-65.4172873 100.6585814 -65.40858481 97.3764117 -65.3984375 94.09375 C-65.40045899 91.80741279 -65.40337105 89.52107621 -65.40713501 87.23474121 C-65.41155479 82.44663342 -65.40513828 77.6586937 -65.39111328 72.87060547 C-65.3740218 66.73710501 -65.38386481 60.6039984 -65.40183067 54.47051239 C-65.41267773 49.75043782 -65.40921788 45.03045642 -65.4014473 40.31037903 C-65.39944785 38.04897515 -65.40189557 35.78756278 -65.40888596 33.52616882 C-65.41651539 30.36422353 -65.40487472 27.20291367 -65.38818359 24.04101562 C-65.39425629 23.10888748 -65.40032898 22.17675934 -65.40658569 21.21638489 C-65.34789677 15.20674359 -64.5041826 10.83766939 -60.38671875 6.171875 C-59.82597656 5.70265625 -59.26523437 5.2334375 -58.6875 4.75 C-58.13449219 4.27046875 -57.58148438 3.7909375 -57.01171875 3.296875 C-41.95477853 -6.40973501 -7.08182314 0 0 0 Z " fill="#17297D" transform="translate(87,58)"/>
<path d="M0 0 C0.33 0 0.66 0 1 0 C1.13922464 13.01318961 1.24573568 26.02620106 1.31087303 39.0399847 C1.34214115 45.0833212 1.38453285 51.1261469 1.45263672 57.16918945 C1.51798827 63.00475118 1.55374002 68.83982261 1.56926346 74.67572212 C1.5803213 76.89844032 1.60191503 79.12113268 1.63438034 81.34364128 C1.67815233 84.46527257 1.68392526 87.58489667 1.68115234 90.70678711 C1.702724 91.61885422 1.72429565 92.53092133 1.746521 93.47062683 C1.68064129 100.35734903 -0.51846925 104.7949731 -5 110 C-9.28040648 113.81222628 -13.57445099 115.13094305 -19.21777344 115.11352539 C-20.03832214 115.11344986 -20.85887085 115.11337433 -21.70428467 115.11329651 C-22.58046448 115.10813522 -23.45664429 115.10297394 -24.359375 115.09765625 C-25.71594208 115.09553383 -25.71594208 115.09553383 -27.09991455 115.09336853 C-29.98331027 115.08777911 -32.86662782 115.07522853 -35.75 115.0625 C-37.70703013 115.05748363 -39.66406147 115.05292096 -41.62109375 115.04882812 C-46.41409253 115.03781313 -51.20703302 115.02055574 -56 115 C-54.22455299 111.3914078 -52.46936108 108.09639676 -50.0625 104.875 C-46.53126864 99.92682496 -43.41352458 94.78519954 -40.3125 89.5625 C-32.05654806 75.67159501 -23.38371705 62.05577053 -14.56420898 48.5168457 C-11.03290068 43.0895779 -7.86444788 38.04956077 -5.84375 31.8671875 C-4.88419551 29.74372896 -3.68430498 28.58575522 -2 27 C-0.68638302 24.37276604 -0.78746091 22.27389439 -0.68359375 19.3359375 C-0.62075195 17.65371094 -0.62075195 17.65371094 -0.55664062 15.9375 C-0.51732422 14.761875 -0.47800781 13.58625 -0.4375 12.375 C-0.37272461 10.59996094 -0.37272461 10.59996094 -0.30664062 8.7890625 C-0.20032574 5.85949672 -0.09829358 2.92984412 0 0 Z " fill="#A7061A" transform="translate(220,74)"/>
<path d="M0 0 C0.68551882 -0.00382555 1.37103764 -0.00765109 2.07732975 -0.01159257 C4.36178257 -0.021866 6.64598137 -0.01794128 8.93045044 -0.01396179 C10.57350903 -0.01831143 12.21656558 -0.02349542 13.85961914 -0.02944946 C18.3142273 -0.04282423 22.76875053 -0.04341979 27.22337484 -0.04088616 C30.94595048 -0.03981534 34.66850901 -0.04470273 38.39108098 -0.04949158 C47.17570155 -0.06058169 55.96027937 -0.06102709 64.74490356 -0.05497742 C73.79830763 -0.04893837 82.85155626 -0.06124803 91.90493381 -0.08254749 C99.6860172 -0.10017854 107.46705118 -0.10616244 115.24815381 -0.10290974 C119.89181631 -0.10109901 124.53536794 -0.10371203 129.1790123 -0.11762428 C133.54736752 -0.13022235 137.91548094 -0.12823985 142.28383255 -0.11521339 C143.88336011 -0.1128523 145.4829048 -0.11556552 147.08241272 -0.12383652 C156.288019 -0.16799095 163.72823977 -0.06502679 171.70437622 5.01069641 C176.6203428 9.92666299 179.05467087 15.53711189 179.10827637 22.47080994 C179.11687683 23.3032724 179.12547729 24.13573486 179.13433838 24.99342346 C179.1407283 26.35089691 179.1407283 26.35089691 179.14724731 27.73579407 C179.15951355 29.17561142 179.15951355 29.17561142 179.17202759 30.64451599 C179.19683895 33.82125736 179.21338847 36.9979541 179.22781372 40.17475891 C179.2331374 41.26186535 179.23846107 42.34897179 179.24394608 43.46902084 C179.27066158 49.22525578 179.29003999 54.98146917 179.30447388 60.73774719 C179.31780208 65.49250065 179.34563702 70.24682385 179.38650513 75.00141907 C179.43592012 80.75083397 179.4606061 86.4998592 179.46770096 92.24947739 C179.47439802 94.43504973 179.48957954 96.62061391 179.51359177 98.80606461 C179.54537443 101.87424266 179.5452599 104.94093067 179.53787231 108.00923157 C179.55427765 108.90206848 179.57068298 109.7949054 179.58758545 110.71479797 C179.52200134 117.41144402 177.71729118 122.69299235 173.95437622 128.26069641 C167.90689652 134.02772037 163.36704981 135.37927421 155.07333374 135.40786743 C154.03536813 135.41338246 154.03536813 135.41338246 152.97643352 135.41900891 C150.65820114 135.43002012 148.34001362 135.43388521 146.02175903 135.43769836 C144.35929218 135.44396492 142.69682672 135.45061189 141.03436279 135.45761108 C135.57541882 135.4786298 130.11647463 135.48901093 124.65750122 135.49897766 C122.77681209 135.50302593 120.8961231 135.50714288 119.01543427 135.51132774 C110.17986167 135.53037403 101.34429741 135.54460665 92.50870824 135.55293971 C82.31531902 135.56271259 72.12214692 135.5890358 61.9288342 135.62944061 C54.04588934 135.65961351 46.16300669 135.67440968 38.28000522 135.67772073 C33.5736596 135.68006972 28.8675461 135.68901072 24.16126251 135.7141819 C19.73216517 135.73748843 15.30345235 135.74168553 10.87430954 135.73142052 C9.25219569 135.73092569 7.63006273 135.73723061 6.00800705 135.75097656 C-3.95696039 135.83067331 -10.97106628 135.5458783 -18.85812378 128.88569641 C-23.95309364 122.77173258 -24.4892538 117.73447702 -24.46554565 110.06782532 C-24.4740152 109.05567459 -24.48248474 108.04352386 -24.49121094 107.0007019 C-24.51456414 103.6627589 -24.51560343 100.32527735 -24.51437378 96.98725891 C-24.52147657 94.66087154 -24.52917574 92.33448593 -24.53744507 90.00810242 C-24.55088622 85.13424306 -24.55246031 80.26054567 -24.54660034 75.38667297 C-24.54070611 69.1500636 -24.57128712 62.91423318 -24.61171722 56.67777443 C-24.6376046 51.87353856 -24.64047062 47.06948994 -24.63682556 42.26519394 C-24.63851596 39.96634845 -24.64815064 37.66749424 -24.66596985 35.36871719 C-24.68817805 32.14940466 -24.67844678 28.93166509 -24.66085815 25.71235657 C-24.6741214 24.7687175 -24.68738464 23.82507843 -24.7010498 22.85284424 C-24.61041571 15.69018576 -22.52748983 10.94149743 -17.60295868 5.73560524 C-12.29786173 0.94484393 -6.95544264 0.01167538 0 0 Z M-16.32296753 7.19819641 C-16.87081909 7.87882141 -17.41867065 8.55944641 -17.98312378 9.26069641 C-18.54902222 9.94132141 -19.11492065 10.62194641 -19.69796753 11.32319641 C-21.80145386 14.34733907 -22.1722928 16.89704861 -22.1927948 20.47790527 C-22.1999501 21.33712585 -22.20710541 22.19634644 -22.21447754 23.081604 C-22.21716644 24.02137589 -22.21985535 24.96114777 -22.22262573 25.92939758 C-22.22919693 26.92160309 -22.23576813 27.91380859 -22.24253845 28.93608093 C-22.26227594 32.22527643 -22.2739358 35.51442623 -22.28390503 38.80366516 C-22.28798056 39.92728266 -22.29205608 41.05090015 -22.29625511 42.20856667 C-22.31711889 48.15701234 -22.33141866 54.10543494 -22.34078979 60.0539093 C-22.35184799 66.19293156 -22.3862406 72.33159073 -22.42596149 78.47048473 C-22.45213026 83.19491237 -22.46048195 87.91925359 -22.46407127 92.64374733 C-22.46893741 94.90631369 -22.48055209 97.16887619 -22.49910927 99.43137169 C-22.5235029 102.60287955 -22.52253478 105.77344928 -22.51559448 108.94502258 C-22.52840454 109.87467331 -22.5412146 110.80432404 -22.55441284 111.762146 C-22.5006162 118.5281171 -21.07637341 124.13025107 -16.26437378 129.10054016 C-15.69718628 129.46276672 -15.12999878 129.82499329 -14.54562378 130.19819641 C-13.69484253 130.76860657 -13.69484253 130.76860657 -12.82687378 131.35054016 C3.74033203 139.81580102 24.34972761 133.26069641 42.95437622 133.26069641 C42.95437622 90.03069641 42.95437622 46.80069641 42.95437622 2.26069641 C16.37468273 -1.36325336 16.37468273 -1.36325336 -16.32296753 7.19819641 Z M43.95437622 2.26069641 C43.95437622 45.49069641 43.95437622 88.72069641 43.95437622 133.26069641 C65.73437622 133.26069641 87.51437622 133.26069641 109.95437622 133.26069641 C109.95437622 90.03069641 109.95437622 46.80069641 109.95437622 2.26069641 C88.17437622 2.26069641 66.39437622 2.26069641 43.95437622 2.26069641 Z M110.95437622 2.26069641 C110.95437622 45.49069641 110.95437622 88.72069641 110.95437622 133.26069641 C136.83986361 136.87903395 136.83986361 136.87903395 170.97781372 128.57710266 C171.42382935 127.9983136 171.86984497 127.41952454 172.32937622 126.82319641 C172.7908606 126.24698547 173.25234497 125.67077454 173.72781372 125.07710266 C176.0051527 121.70461022 177.20231496 119.11726614 177.22853088 115.01261902 C177.23850601 114.1717424 177.24848114 113.33086578 177.25875854 112.46450806 C177.25942322 111.55017502 177.26008789 110.63584198 177.26077271 109.69380188 C177.27325798 108.23935417 177.27325798 108.23935417 177.28599548 106.75552368 C177.31011127 103.54626964 177.31887118 100.33721899 177.32546997 97.12788391 C177.33443765 94.89311157 177.34355952 92.65833984 177.35282898 90.42356873 C177.36932762 85.7344975 177.37702025 81.04549772 177.37991333 76.35639954 C177.38528684 70.36432887 177.42292115 64.37293563 177.46865749 58.38105583 C177.49849073 53.76204517 177.50563832 49.14319605 177.50663948 44.52409744 C177.51083211 42.31620824 177.52322769 40.10831812 177.54415703 37.90052414 C177.5711901 34.80117242 177.5662091 31.70336984 177.55374146 28.60395813 C177.56857574 27.70177048 177.58341003 26.79958282 177.59869385 25.87005615 C177.52255707 19.18097451 175.78439436 13.79415705 171.95437622 8.26069641 C155.67481793 -5.42515713 128.87202286 2.26069641 110.95437622 2.26069641 Z " fill="#AF9EAC" transform="translate(44.045623779296875,55.73930358886719)"/>
<path d="M0 0 C21.63590643 -0.07011784 43.27179409 -0.1230018 64.90779114 -0.15543652 C74.95402833 -0.17089759 85.00019487 -0.19197264 95.04638672 -0.22631836 C103.80385448 -0.25624391 112.56127106 -0.27558052 121.31878853 -0.28226548 C125.95473695 -0.28617238 130.59053898 -0.29533839 135.22644043 -0.31719017 C139.59304712 -0.33760517 143.9594476 -0.34382368 148.32609749 -0.33932304 C149.92563054 -0.340146 151.52517073 -0.34608177 153.1246624 -0.35761642 C162.33837769 -0.42078203 169.76597234 -0.33074488 177.75 4.75 C182.66596658 9.66596658 185.10029465 15.27641548 185.15390015 22.21011353 C185.16250061 23.04257599 185.17110107 23.87503845 185.17996216 24.73272705 C185.18635208 26.0902005 185.18635208 26.0902005 185.19287109 27.47509766 C185.20513733 28.91491501 185.20513733 28.91491501 185.21765137 30.38381958 C185.24246273 33.56056095 185.25901225 36.73725769 185.2734375 39.9140625 C185.27876118 41.00116894 185.28408485 42.08827538 185.28956985 43.20832443 C185.31628536 48.96455937 185.33566377 54.72077276 185.35009766 60.47705078 C185.36342585 65.23180424 185.3912608 69.98612743 185.43212891 74.74072266 C185.4815439 80.49013756 185.50622987 86.23916279 185.51332474 91.98878098 C185.52002179 94.17435332 185.53520332 96.3599175 185.55921555 98.54536819 C185.59099821 101.61354625 185.59088368 104.68023426 185.58349609 107.74853516 C185.59990143 108.64137207 185.61630676 109.53420898 185.63320923 110.45410156 C185.56762512 117.15074761 183.76291496 122.43229594 180 128 C174.62736201 133.12347846 170.28476839 135.13189299 162.86425781 135.11352539 C161.84350159 135.11344986 160.82274536 135.11337433 159.77105713 135.11329651 C158.67613953 135.10813522 157.58122192 135.10297394 156.453125 135.09765625 C155.3267865 135.0962413 154.200448 135.09482635 153.03997803 135.09336853 C149.44329165 135.08777199 145.84666756 135.0752201 142.25 135.0625 C139.81119882 135.05748455 137.37239666 135.05292172 134.93359375 135.04882812 C128.95570792 135.0378037 122.97785841 135.02106898 117 135 C117 134.67 117 134.34 117 134 C117.59166962 133.99857498 118.18333923 133.99714996 118.79293823 133.99568176 C124.99100188 133.97588593 131.18809374 133.92140212 137.38574219 133.84741211 C139.69393932 133.82431722 142.00224056 133.80985653 144.31054688 133.80444336 C147.64258063 133.7950918 150.97299593 133.75396331 154.3046875 133.70703125 C155.32488983 133.7109639 156.34509216 133.71489655 157.39620972 133.71894836 C165.64576263 133.55363864 172.62581785 131.4585367 178.5 125.4375 C180.76236084 121.76116364 182.24620588 119.12788492 182.27415466 114.75192261 C182.28911736 113.49060768 182.28911736 113.49060768 182.30438232 112.20381165 C182.305047 111.28947861 182.30571167 110.37514557 182.30639648 109.43310547 C182.31888176 107.97865776 182.31888176 107.97865776 182.33161926 106.49482727 C182.35573505 103.28557323 182.36449496 100.07652258 182.37109375 96.8671875 C182.38006143 94.63241516 182.3891833 92.39764343 182.39845276 90.16287231 C182.4149514 85.47380109 182.42264403 80.78480131 182.42553711 76.09570312 C182.43091062 70.10363245 182.46854492 64.11223922 182.51428127 58.12035942 C182.54411451 53.50134876 182.5512621 48.88249964 182.55226326 44.26340103 C182.55645589 42.05551183 182.56885147 39.84762171 182.58978081 37.63982773 C182.61681388 34.54047601 182.61183288 31.44267343 182.59936523 28.34326172 C182.61419952 27.44107407 182.62903381 26.53888641 182.64431763 25.60935974 C182.56810033 18.91320461 180.8046116 13.55491658 177 8 C171.65620385 3.45957186 165.93039237 2.87726182 159.17901611 2.84178162 C158.1509597 2.83437465 158.1509597 2.83437465 157.10213447 2.82681805 C154.80669882 2.81146588 152.5112911 2.80308863 150.21582031 2.79467773 C148.56992854 2.78509742 146.92403921 2.77508724 145.27815247 2.76467896 C140.80953927 2.7376405 136.34091553 2.71662518 131.87226582 2.69667697 C127.20240163 2.67481091 122.53256992 2.64742524 117.86273193 2.62062073 C109.01951588 2.57070225 100.17628179 2.52576027 91.33303046 2.48259836 C81.26539318 2.43321878 71.1977885 2.37830332 61.13018274 2.32291877 C40.42015219 2.20911169 19.71009053 2.10226985 -1 2 C-0.67 1.34 -0.34 0.68 0 0 Z " fill="#CECECE" transform="translate(38,56)"/>
<path d="M0 0 C-0.53625 0.2475 -1.0725 0.495 -1.625 0.75 C-7.69283614 3.94359797 -12.75699185 7.27097555 -15 14 C-15.09632424 15.40328997 -15.13911779 16.8106399 -15.14717102 18.21720886 C-15.15432632 19.07642944 -15.16148163 19.93565002 -15.16885376 20.82090759 C-15.17154266 21.76067947 -15.17423157 22.70045135 -15.17700195 23.66870117 C-15.18357315 24.66090668 -15.19014435 25.65311218 -15.19691467 26.67538452 C-15.21665216 29.96458002 -15.22831202 33.25372982 -15.23828125 36.54296875 C-15.24235678 37.66658625 -15.2464323 38.79020374 -15.25063133 39.94787025 C-15.27149512 45.89631593 -15.28579489 51.84473853 -15.29516602 57.79321289 C-15.30622421 63.93223514 -15.34061682 70.07089432 -15.38033772 76.20978832 C-15.40650648 80.93421596 -15.41485817 85.65855718 -15.41844749 90.38305092 C-15.42331363 92.64561728 -15.43492831 94.90817978 -15.45348549 97.17067528 C-15.47787912 100.34218314 -15.476911 103.51275287 -15.4699707 106.68432617 C-15.48278076 107.6139769 -15.49559082 108.54362762 -15.50878906 109.50144958 C-15.46161975 115.43390552 -14.47337629 120.08937852 -11 125 C-4.57507551 130.1946198 0.92836419 131.29811882 8.92114258 131.31884766 C9.80944763 131.32889328 10.69775269 131.3389389 11.61297607 131.34928894 C14.54015474 131.38010401 17.467242 131.39715149 20.39453125 131.4140625 C22.42763555 131.43277549 24.4607321 131.452349 26.49382019 131.4727478 C31.83832221 131.52406113 37.18284941 131.56369123 42.52746582 131.60089111 C47.98386866 131.64093569 53.44016683 131.69202599 58.89648438 131.7421875 C69.59758272 131.83893738 80.29874017 131.92334526 91 132 C91 132.33 91 132.66 91 133 C79.01253838 133.09280371 67.02516266 133.16381784 55.03741455 133.20724869 C49.47061445 133.22809653 43.90406069 133.25636328 38.33740234 133.30175781 C32.96222522 133.34531506 27.58728461 133.36915819 22.21194458 133.37950897 C20.16427896 133.38688258 18.11662584 133.40128152 16.06906128 133.42292023 C13.19419691 133.45208528 10.32030173 133.4559505 7.4453125 133.45410156 C6.60445602 133.46848267 5.76359955 133.48286377 4.89726257 133.49768066 C-2.28841966 133.44788744 -7.34147056 131.24498041 -12.8125 126.625 C-17.90746986 120.51103617 -18.44363002 115.47378061 -18.41992188 107.80712891 C-18.42839142 106.79497818 -18.43686096 105.78282745 -18.44558716 104.74000549 C-18.46894036 101.40206249 -18.46997965 98.06458094 -18.46875 94.7265625 C-18.47585279 92.40017513 -18.48355196 90.07378952 -18.49182129 87.74740601 C-18.50526244 82.87354665 -18.50683654 77.99984926 -18.50097656 73.12597656 C-18.49508233 66.88936719 -18.52566334 60.65353677 -18.56609344 54.41707802 C-18.59198082 49.61284214 -18.59484684 44.80879353 -18.59120178 40.00449753 C-18.59289218 37.70565204 -18.60252686 35.40679783 -18.62034607 33.10802078 C-18.64255427 29.88870825 -18.632823 26.67096867 -18.61523438 23.45166016 C-18.62849762 22.50802109 -18.64176086 21.56438202 -18.65542603 20.59214783 C-18.56484541 13.43371548 -16.51797737 8.54438218 -11.45113373 3.43950844 C-7.58588603 0.06258769 -4.99083433 -1.54887962 0 0 Z " fill="#B7B7BA" transform="translate(38,58)"/>
<path d="M0 0 C0 8.58 0 17.16 0 26 C-6.27 26 -12.54 26 -19 26 C-17.68 24.02 -16.36 22.04 -15 20 C-14.09835662 18.60315997 -13.20076418 17.20369065 -12.30859375 15.80078125 C-11.83873047 15.06666016 -11.36886719 14.33253906 -10.88476562 13.57617188 C-9.91346872 12.05696389 -8.94474968 10.53610491 -7.97851562 9.01367188 C-7.50994141 8.28341797 -7.04136719 7.55316406 -6.55859375 6.80078125 C-5.92908813 5.81331909 -5.92908813 5.81331909 -5.28686523 4.8059082 C-1.86224145 0 -1.86224145 0 0 0 Z " fill="#162879" transform="translate(87,163)"/>
<path d="M0 0 C0.94875 0.04125 1.8975 0.0825 2.875 0.125 C2.875 0.785 2.875 1.445 2.875 2.125 C5.185 2.125 7.495 2.125 9.875 2.125 C9.875 4.105 9.875 6.085 9.875 8.125 C3.605 8.125 -2.665 8.125 -9.125 8.125 C-3.80993151 0.15239726 -3.80993151 0.15239726 0 0 Z " fill="#111F61" transform="translate(77.125,180.875)"/>
<path d="M0 0 C11.55 0 23.1 0 35 0 C35 0.33 35 0.66 35 1 C33.06447266 1.18175781 33.06447266 1.18175781 31.08984375 1.3671875 C29.37236253 1.53612008 27.65491642 1.70540987 25.9375 1.875 C25.08994141 1.95363281 24.24238281 2.03226563 23.36914062 2.11328125 C18.36759933 2.61536648 13.81713209 3.48874287 9 5 C7.35807097 5.39174154 5.71267205 5.76957833 4.0625 6.125 C3.29035156 6.29257813 2.51820313 6.46015625 1.72265625 6.6328125 C0.86994141 6.81457031 0.86994141 6.81457031 0 7 C0 4.69 0 2.38 0 0 Z " fill="#8E0110" transform="translate(155,58)"/>
<path d="M0 0 C3.63 0 7.26 0 11 0 C11 1.98 11 3.96 11 6 C4.07 6 -2.86 6 -10 6 C-9 4 -9 4 -6.6875 2.875 C-4 2 -4 2 0 2 C0 1.34 0 0.68 0 0 Z " fill="#0F1C5C" transform="translate(76,58)"/>
<path d="M0 0 C4.59901016 2.95650653 6.66991754 6.16723638 9 11 C9 12.32 9 13.64 9 15 C8.34 15 7.68 15 7 15 C6.72027344 14.32453125 6.44054687 13.6490625 6.15234375 12.953125 C3.32501874 6.66209957 1.34130891 3.76711661 -5 1 C-5.804375 0.5875 -6.60875 0.175 -7.4375 -0.25 C-7.953125 -0.4975 -8.46875 -0.745 -9 -1 C-5.13492692 -2.28835769 -3.7143447 -1.56002478 0 0 Z " fill="#C9C2C2" transform="translate(213,59)"/>
<path d="M0 0 C2.375 0.4375 2.375 0.4375 5.375 2.4375 C5.375 3.0975 5.375 3.7575 5.375 4.4375 C6.365 4.7675 7.355 5.0975 8.375 5.4375 C3.095 5.4375 -2.185 5.4375 -7.625 5.4375 C-2.625 0.4375 -2.625 0.4375 0 0 Z " fill="#0E1954" transform="translate(75.625,183.5625)"/>
<path d="M0 0 C1 3 1 3 0.25 4.8671875 C-2.70515378 9.61390326 -5.77124649 13.66552235 -11 16 C-13.9375 15.8125 -13.9375 15.8125 -16 15 C-15.46375 14.7525 -14.9275 14.505 -14.375 14.25 C-7.44345904 10.60182055 -3.98908602 6.62018531 0 0 Z " fill="#C7C2C2" transform="translate(221,174)"/>
<path d="M0 0 C-0.53625 0.2475 -1.0725 0.495 -1.625 0.75 C-8.10971166 4.16300614 -11.96790404 7.95185606 -16 14 C-16.33 13.01 -16.66 12.02 -17 11 C-13.54516041 4.64309515 -7.86554986 -2.44103271 0 0 Z " fill="#C1C1C3" transform="translate(38,58)"/>
<path d="M0 0 C1.31441913 1.9716287 2.58714134 3.97182015 3.8125 6 C6.05476332 9.07510399 7.64304607 10.32152304 11 12 C11.763125 12.391875 12.52625 12.78375 13.3125 13.1875 C13.869375 13.455625 14.42625 13.72375 15 14 C12.589802 14.86616491 11.42372482 15.1663451 9 14.21484375 C4.55637915 11.37682809 1.38415079 8.8719603 -1 4 C-0.75 1.625 -0.75 1.625 0 0 Z " fill="#C2C2C4" transform="translate(22,175)"/>
<path d="M0 0 C0.66 0.33 1.32 0.66 2 1 C1.0919838 2.13199353 0.17316174 3.25532363 -0.75 4.375 C-1.26046875 5.00148437 -1.7709375 5.62796875 -2.296875 6.2734375 C-4.12451022 8.12622366 -5.55268354 9.12320552 -8 10 C-8.99 9.67 -9.98 9.34 -11 9 C-10.45730469 8.60167969 -9.91460937 8.20335937 -9.35546875 7.79296875 C-8.64003906 7.26316406 -7.92460937 6.73335937 -7.1875 6.1875 C-6.47980469 5.66542969 -5.77210938 5.14335937 -5.04296875 4.60546875 C-3.21468607 3.16871123 -1.60103312 1.68184237 0 0 Z " fill="#89141E" transform="translate(217,178)"/>
<path d="M0 0 C4.16943993 0.93599672 5.58410733 1.37616099 8 5 C5.04725901 5 3.50941597 4.56108169 0.8125 3.5 C0.09707031 3.2215625 -0.61835938 2.943125 -1.35546875 2.65625 C-1.89816406 2.4396875 -2.44085938 2.223125 -3 2 C-2.01 1.34 -1.02 0.68 0 0 Z " fill="#C3B6B6" transform="translate(207,57)"/>
</svg>
