<?xml version="1.0" encoding="UTF-8"?>
<svg version="1.1" xmlns="http://www.w3.org/2000/svg" width="980" height="980">
<path d="M0 0 C0.69109863 0.09945923 1.38219727 0.19891846 2.09423828 0.3013916 C33.7822673 4.86670558 64.59840294 11.85458739 95 22 C96.07588379 22.35819824 97.15176758 22.71639648 98.26025391 23.08544922 C152.92510549 41.50943514 204.94582738 70.71318522 249 108 C250.03073806 108.85738666 251.0620156 109.71412505 252.09375 110.5703125 C264.19210958 120.65327526 275.59247455 131.41965342 286.70458984 142.57421875 C288.39175958 144.26681347 290.08430196 145.95390597 291.77734375 147.640625 C297.39848831 153.25807481 302.87121264 158.92287083 308 165 C308.845625 165.96421875 309.69125 166.9284375 310.5625 167.921875 C372.99125362 240.35523658 410.44822404 329.83464222 424 424 C424.18079102 425.22589844 424.36158203 426.45179688 424.54785156 427.71484375 C430.05502531 466.99861988 429.78406543 510.7797061 424 550 C423.90054077 550.69109863 423.80108154 551.38219727 423.6986084 552.09423828 C419.13329442 583.7822673 412.14541261 614.59840294 402 645 C401.64180176 646.07588379 401.28360352 647.15176758 400.91455078 648.26025391 C380.63028389 708.44464855 347.22370092 765.85146245 304.16015625 812.62890625 C302.97999413 813.92431024 301.80731266 815.22735686 300.67431641 816.56420898 C295.14792935 823.05294075 289.13651221 829.04958305 283.11328125 835.07202148 C281.26271033 836.92477468 279.42029924 838.78538706 277.578125 840.64648438 C271.40484658 846.84832985 265.1902897 852.74073784 258.30810547 858.15942383 C256.07408017 859.94092549 253.96990084 861.80806874 251.875 863.75 C244.9553685 869.95677426 237.44338472 875.4445689 230 881 C228.92202148 881.80727539 228.92202148 881.80727539 227.82226562 882.63085938 C160.82177586 932.59216918 82.35246001 962.14827327 0 974 C-1.22589844 974.18079102 -2.45179688 974.36158203 -3.71484375 974.54785156 C-42.98856604 980.05361586 -86.79081215 979.80135943 -126 974 C-127.05078735 973.84727631 -127.05078735 973.84727631 -128.12280273 973.69146729 C-158.77658523 969.22300784 -188.47970398 962.38791208 -218 953 C-218.91410645 952.71044434 -219.82821289 952.42088867 -220.77001953 952.12255859 C-282.33073742 932.33648159 -341.10417724 897.91165536 -388.62890625 854.16015625 C-389.92242276 852.9817137 -391.22369951 851.81082354 -392.55981445 850.6809082 C-399.10409011 845.11510213 -405.12181762 839.02915248 -411.18188477 832.94848633 C-413.05829475 831.06671726 -414.93998969 829.19035262 -416.82226562 827.31445312 C-422.76040976 821.37984858 -428.59799617 815.43433145 -434 809 C-434.845625 808.03578125 -435.69125 807.0715625 -436.5625 806.078125 C-498.98840332 733.6480705 -536.4495279 644.1562978 -550 550 C-550.18079102 548.77410156 -550.36158203 547.54820312 -550.54785156 546.28515625 C-556.05502531 507.00138012 -555.78406543 463.2202939 -550 424 C-549.85081116 422.96335205 -549.85081116 422.96335205 -549.6986084 421.90576172 C-545.13329442 390.2177327 -538.14541261 359.40159706 -528 329 C-527.64180176 327.92411621 -527.28360352 326.84823242 -526.91455078 325.73974609 C-507.47299325 268.05571065 -476.07355974 213.8176619 -436 168 C-435.36964844 167.27039063 -434.73929687 166.54078125 -434.08984375 165.7890625 C-432.40573185 163.84792214 -430.70400821 161.92368871 -429 160 C-428.09834106 158.97108643 -428.09834106 158.97108643 -427.1784668 157.92138672 C-421.10223493 151.06410149 -414.71324322 144.55969612 -408.22485352 138.09448242 C-406.4332405 136.3082533 -404.64706945 134.51670653 -402.86132812 132.72460938 C-397.07706327 126.93673268 -391.26467748 121.27285455 -385 116 C-384.03578125 115.154375 -383.0715625 114.30875 -382.078125 113.4375 C-309.64476342 51.00874638 -220.16535778 13.55177596 -126 0 C-124.16115234 -0.27118652 -124.16115234 -0.27118652 -122.28515625 -0.54785156 C-83.00138012 -6.05502531 -39.2202939 -5.78406543 0 0 Z M-80.04016113 188.04663086 C-82.98867515 188.09836545 -85.9351763 188.17776183 -88.8828125 188.265625 C-90.19123611 188.28529327 -90.19123611 188.28529327 -91.52609253 188.30535889 C-99.63815713 188.60657674 -108.27422688 190.95612837 -114 197 C-121.57523678 207.66988238 -122.29300501 216.88612184 -122.1953125 229.67089844 C-122.19146888 231.15012409 -122.18854377 232.62935236 -122.1864624 234.10858154 C-122.18016354 237.2820499 -122.1676611 240.4554105 -122.15032959 243.62883759 C-122.12315698 248.65670445 -122.11146891 253.68453623 -122.10205078 258.71246338 C-122.07801455 270.29740503 -122.03396306 281.8822541 -121.98959351 293.46713257 C-121.94913826 304.07917582 -121.91301227 314.69118716 -121.89316368 325.30329156 C-121.88325688 330.29100906 -121.86362425 335.27856084 -121.83630371 340.26621199 C-121.8212734 343.38281666 -121.81473109 346.49939936 -121.8103714 349.61603546 C-121.80666052 351.0494166 -121.79952624 352.48279412 -121.78850555 353.9161377 C-121.61511878 377.22183824 -121.61511878 377.22183824 -127 385 C-131.97355793 388.69828667 -136.37046388 389.12147954 -142.44580078 389.24951172 C-143.75461212 389.27979462 -145.06342346 389.31007751 -146.41189575 389.34127808 C-147.10935032 389.35551693 -147.80680489 389.36975578 -148.52539444 389.38442612 C-150.72134999 389.4302306 -152.91702315 389.48319709 -155.11276245 389.5383606 C-161.35489059 389.69465143 -167.59710657 389.8441957 -173.83984375 389.97412109 C-177.66384232 390.05422268 -181.48731416 390.14789547 -185.3107872 390.24994278 C-186.75935165 390.28603761 -188.20804958 390.31716579 -189.65683365 390.34298325 C-203.75878947 390.43599172 -203.75878947 390.43599172 -216.0625 396.5 C-218.96755004 400.24845167 -219.48899933 403.64945848 -219.3828125 408.3671875 C-217.85645923 418.86475996 -209.99500325 427.04012769 -203.42578125 434.8671875 C-200.15911281 438.76738608 -197.08720349 442.7855887 -194.0625 446.875 C-189.8119615 452.60952932 -185.47002728 458.26029627 -181.0625 463.875 C-175.88595642 470.48424209 -170.91271876 477.21019799 -166.03320312 484.04077148 C-161.81605117 489.92308949 -157.46469217 495.69264974 -153.0625 501.4375 C-144.99617395 511.96703945 -137.12688146 522.63243047 -129.29101562 533.33398438 C-103.65801405 574.52698335 -103.65801405 574.52698335 -68 604 C-61.4331363 604.79009603 -56.41052834 603.84074256 -51 600 C-43.85878814 593.99399002 -38.26237532 586.5284214 -32.63525391 579.14453125 C-30.83074281 576.77802998 -29.01509662 574.42028907 -27.19921875 572.0625 C-19.707187 562.30843177 -12.37560577 552.45742929 -5.2109375 542.4609375 C-1.84965015 537.77582005 1.57168846 533.13619449 5 528.5 C9.53772041 522.35999486 14.03966783 516.19645051 18.5 510 C24.68083863 501.41628409 30.94785859 492.89798492 37.23388672 484.39111328 C39.5762763 481.21978848 41.91490663 478.04570287 44.25317383 474.87133789 C45.41548317 473.29348875 46.57807975 471.71585115 47.7409668 470.13842773 C50.71178255 466.10841903 53.67910827 462.07591071 56.640625 458.0390625 C61.78061021 451.03835836 66.92149862 444.04631387 72.25 437.1875 C75.7227312 432.69877967 79.11785071 428.16496183 82.4375 423.5625 C83.0577002 422.7111145 83.0577002 422.7111145 83.69042969 421.8425293 C88.05598234 415.73743571 90.66364914 410.94666713 90.4140625 403.40234375 C89.70794662 399.30553937 88.10127705 397.76418172 85 395 C79.49195757 391.67222437 74.49066762 390.90251814 68.14331055 390.75048828 C66.98828537 390.72020538 65.83326019 390.68992249 64.64323425 390.65872192 C63.40358414 390.62954681 62.16393402 390.6003717 60.88671875 390.5703125 C58.92531574 390.51550996 56.96391303 390.4606907 55.00253773 390.40490532 C50.18072294 390.26852123 45.35877571 390.13982516 40.53637695 390.02587891 C37.82727411 389.96146104 35.11855828 389.88963171 32.40986633 389.80978394 C29.86475027 389.73504508 27.31929051 389.67102402 24.77360535 389.61917114 C10.07423954 389.1573271 10.07423954 389.1573271 4.6875 383.625 C-1.60598654 370.10565855 -1.14423013 354.44726049 -1.15771484 339.83862305 C-1.16279556 338.60567505 -1.16787628 337.37272705 -1.17311096 336.10241699 C-1.18372817 333.45130232 -1.1927531 330.80023713 -1.19923019 328.14911461 C-1.210072 323.93846543 -1.23035491 319.72789205 -1.25234985 315.51728821 C-1.31374368 303.5542855 -1.36818783 291.59129084 -1.40136719 279.62817383 C-1.41983656 272.99716351 -1.44891475 266.36628447 -1.4893719 259.73537093 C-1.51021897 256.24347169 -1.52586705 252.75173604 -1.52817917 249.25977135 C-0.37456746 220.49801496 -0.37456746 220.49801496 -11.6796875 195.171875 C-22.14061885 186.23016604 -36.89880798 187.58849932 -49.77734375 187.71875 C-52.83346122 187.74958095 -55.88905549 187.75970776 -58.9453125 187.765625 C-65.9785465 187.79143816 -73.00799745 187.93876953 -80.04016113 188.04663086 Z M-313 588 C-315.2275 593.5275 -317.455 599.055 -319.75 604.75 C-326.29318875 620.92627589 -333.06048698 636.9893194 -340 653 C-346.17633811 667.28704592 -352.29690545 681.59269647 -358.1875 696 C-358.65744385 697.14605713 -359.1273877 698.29211426 -359.61157227 699.47290039 C-360.25823853 701.0641272 -360.25823853 701.0641272 -360.91796875 702.6875 C-361.29719482 703.61949219 -361.6764209 704.55148437 -362.06713867 705.51171875 C-366.74440531 717.98769403 -363.99339602 731.09072135 -358.71484375 742.8671875 C-348.96454008 762.0418794 -331.52186408 774.85608965 -311.50324875 781.88695985 C-299.03675779 785.8477705 -287.10786472 786.43231671 -274.1441803 786.3742218 C-272.27822549 786.37696776 -270.41227223 786.3810244 -268.54632276 786.38626546 C-263.45752975 786.3967828 -258.36891419 786.38876868 -253.28012908 786.37751496 C-247.77696032 786.36863055 -242.27381373 786.3771287 -236.77064514 786.38337708 C-226.00492193 786.39284267 -215.23926597 786.38628473 -204.47354776 786.37411413 C-191.92456048 786.36045879 -179.37558902 786.36213513 -166.82659619 786.36424746 C-143.75231547 786.36753031 -120.67806589 786.35464323 -97.60379687 786.33440243 C-76.5686193 786.31603697 -55.53347574 786.31022014 -34.49829102 786.31567383 C-33.14764991 786.31602026 -31.7970088 786.31636636 -30.44636769 786.31671212 C-29.44474015 786.31696861 -29.44474015 786.31696861 -28.42287772 786.31723029 C-25.0610402 786.31808392 -21.69920268 786.3189077 -18.33736515 786.31969929 C-17.67403161 786.31985637 -17.01069807 786.32001345 -16.32726352 786.32017529 C1.28240716 786.32417131 18.89207465 786.31863622 36.50174338 786.310188 C39.02775387 786.30898076 41.55376436 786.30777478 44.07977486 786.30657005 C45.9438273 786.30566475 45.9438273 786.30566475 47.84553738 786.30474115 C56.58310711 786.30086958 65.32067072 786.30125268 74.05824089 786.3031559 C84.7139817 786.30528302 95.36968991 786.30001475 106.02542155 786.28554235 C111.45726215 786.27832299 116.88905539 786.27420024 122.32089996 786.27878571 C127.30189777 786.28288814 132.28279816 786.27762332 137.26378126 786.26515963 C139.05700854 786.26225285 140.85024513 786.26263332 142.64346992 786.26680271 C165.50771147 786.31510024 185.84467837 783.27449145 206 772 C206.85335937 771.52820313 207.70671875 771.05640625 208.5859375 770.5703125 C222.06867998 762.34437936 233.70651248 748.23437189 237.59765625 732.74609375 C239.94681968 716.71248316 235.26855896 703.70515202 229.375 688.9375 C228.9104541 687.76469482 228.4459082 686.59188965 227.96728516 685.38354492 C215.01428102 652.77495384 201.46207338 620.40024441 188 588 C165.23 588 142.46 588 119 588 C120.92077632 595.0428465 122.88410882 601.90659354 125.2578125 608.78515625 C125.71883865 610.13425331 125.71883865 610.13425331 126.18917847 611.51060486 C127.16461133 614.36233542 128.14474673 617.21242334 129.125 620.0625 C129.7581145 621.91200602 130.3909286 623.76161491 131.0234375 625.61132812 C135.98109023 640.08626339 140.99505203 654.54126143 146 669 C9.38 669 -127.24 669 -268 669 C-264.04 657.78 -260.08 646.56 -256 635 C-252.32562526 624.40634813 -252.32562526 624.40634813 -248.68603516 613.80102539 C-247.7105768 610.94716092 -246.72823978 608.09570963 -245.74609375 605.24414062 C-245.11677505 603.40378682 -244.48785084 601.56329806 -243.859375 599.72265625 C-243.56891296 598.88235367 -243.27845093 598.04205109 -242.97918701 597.17628479 C-242.71760803 596.40533981 -242.45602905 595.63439484 -242.18652344 594.84008789 C-241.95624451 594.16764542 -241.72596558 593.49520294 -241.4887085 592.80238342 C-240.86915183 590.82866888 -240.86915183 590.82866888 -241 588 C-264.76 588 -288.52 588 -313 588 Z " fill="#010101" transform="translate(553,3)"/>
</svg>
