<?xml version="1.0" encoding="UTF-8"?>
<svg id="Layer_2" data-name="Layer 2" xmlns="http://www.w3.org/2000/svg" viewBox="0 0 72 72">
  <symbol id="core" viewBox="0 0 72 72">
    <g>
      <path fill="currentColor" d="M60.42,29.08c-2.22-.97-4.41-1.92-6.61-2.89v-2.63c4.7,1.9,9.39,3.8,14.11,5.7-10.64,11.89-21.27,23.78-31.89,35.65h-.04s-.04-.03-.06-.05c-10.62-11.85-21.22-23.71-31.85-35.59,4.71-1.9,9.41-3.8,14.12-5.71v2.63c-2.2.96-4.39,1.92-6.6,2.89.04.04.07.07.1.1,2.63,2.2,5.27,4.39,7.9,6.59,2.62,2.19,5.23,4.36,7.85,6.55,2.8,2.33,5.61,4.68,8.4,7.01.02,0,.03.03.05.04.1.08.12.08.21,0,.3-.25.59-.49.88-.74,2.51-2.09,5.01-4.19,7.53-6.28,2.76-2.31,5.52-4.6,8.28-6.91,2.49-2.08,4.98-4.16,7.47-6.23.05-.05.1-.09.17-.15Z"/>
      <path fill="currentColor" d="M33.82,43.09c-.26-.22-.48-.4-.72-.6-3.89-3.25-7.77-6.49-11.66-9.74-.06-.05-.11-.11-.09-.19V10.4c4.16-1.1,8.31-2.21,12.47-3.32,0,12.01,0,24,0,36.02Z"/>
      <path fill="currentColor" d="M38.18,7.09c4.16,1.1,8.31,2.21,12.47,3.32v22.11c0,.12-.03.19-.12.26-3.86,3.22-7.73,6.45-11.6,9.68-.25.21-.49.41-.74.61,0,0-.02,0-.02,0h0V7.2s0-.07,0-.12Z"/>
    </g>
  </symbol>
  <symbol id="alize" viewBox="0 0 72 72">
    <g>
      <polygon fill="currentColor" points="33.97 8.29 33.97 60.58 28.4 57.34 28.4 52.58 14.82 34.24 26.64 22.73 33.97 8.29"/>
      <polygon fill="currentColor" points="20.71 22.89 13.04 24.37 1.41 34.25 11.06 45.57 18.43 46.79 9.01 34.25 20.71 22.89"/>
    </g>
    <g>
      <polygon fill="currentColor" points="38 8.29 38 60.58 43.58 57.34 43.58 52.58 57.16 34.24 45.34 22.73 38 8.29"/>
      <polygon fill="currentColor" points="51.27 22.89 58.94 24.37 70.57 34.25 60.92 45.57 53.55 46.79 62.97 34.25 51.27 22.89"/>
    </g>
  </symbol>
  <symbol id="bise" viewBox="0 0 72 72">
    <g>
      <path fill="currentColor" d="M36.47,28.05c-18,0-32.58,3.57-32.58,7.97s14.59,7.97,32.58,7.97,32.58-3.57,32.58-7.97-14.59-7.97-32.58-7.97ZM36.3,38.18c-12.05,0-21.81-1.75-21.81-3.9s9.76-3.9,21.81-3.9,21.81,1.75,21.81,3.9-9.76,3.9-21.81,3.9Z"/>
      <rect fill="currentColor" x="17.38" y="18.02" width="8.21" height="15.5"/>
      <rect fill="currentColor" x="31.05" y="12.83" width="10.84" height="22.14"/>
      <rect fill="currentColor" x="23.89" y="36.02" width="7.62" height="18.46"/>
      <rect fill="currentColor" x="36.96" y="46.99" width="10.05" height="10.97"/>
      <rect fill="currentColor" x="46.22" y="23.9" width="6.77" height="11.07"/>
    </g>
  </symbol>
</svg>